<svg viewBox="0 0 154 34" fill="none" xmlns="http://www.w3.org/2000/svg">
<path d="M73.9782 6.31595V10.4117H77.6747V12.3856H73.9782V20.1331C73.9782 21.9096 74.4646 22.8965 75.9237 22.8965C77.3829 22.8965 77.091 22.7978 77.4315 22.6991L77.5288 24.673C77.0424 24.8704 76.2642 25.0184 75.2428 25.0184C74.2214 25.0184 73.1027 24.6236 72.4704 23.9328C71.7409 23.1432 71.4977 21.9096 71.4977 20.1824V12.3856H69.309V10.4117H71.4977V6.95746L74.0269 6.2666L73.9782 6.31595Z" fill="#AFD8C3"/>
<path d="M88.375 24.7722L88.1805 22.9464H88.0832C87.305 24.0814 85.7972 25.0683 83.7544 25.0683C80.8848 25.0683 79.4257 23.0451 79.4257 20.9725C79.4257 17.5182 82.4412 15.5937 87.9373 15.6431V15.347C87.9373 14.1627 87.5968 12.0407 84.7272 12.0407C81.8576 12.0407 82.0521 12.4355 81.0307 13.1264L80.4471 11.3992C81.6144 10.6097 83.3167 10.1162 85.0677 10.1162C89.3964 10.1162 90.4178 13.1264 90.4178 15.9885V21.3673C90.4178 22.601 90.4665 23.8346 90.661 24.8216H88.3264L88.375 24.7722ZM87.9859 17.4689C85.1649 17.4195 82.0035 17.913 82.0035 20.6764C82.0035 23.4399 83.1222 23.1438 84.4354 23.1438C85.7486 23.1438 87.4509 21.9595 87.84 20.7258C87.9373 20.4791 87.9859 20.183 87.9859 19.8869V17.4195V17.4689Z" fill="#AFD8C3"/>
<path d="M94.6005 3.75H97.1783V24.7718H94.6005V3.75Z" fill="#AFD8C3"/>
<path d="M102.918 18.0611C102.966 21.5647 105.204 23.0451 107.782 23.0451C110.359 23.0451 110.748 22.6997 111.673 22.3049L112.11 24.1801C111.186 24.5748 109.678 25.0683 107.392 25.0683C103.064 25.0683 100.437 22.1569 100.437 17.8637C100.437 13.5705 102.966 10.1162 107.052 10.1162C111.138 10.1162 112.889 14.212 112.889 16.8767C112.889 19.5415 112.84 17.8143 112.791 18.1104H102.869L102.918 18.0611ZM110.457 16.2352C110.457 14.5574 109.776 11.9914 106.906 11.9914C104.036 11.9914 103.161 14.4094 102.966 16.2352H110.457Z" fill="#AFD8C3"/>
<path d="M116.099 14.3102C116.099 12.8298 116.099 11.5962 116.001 10.4118H118.287L118.433 12.7805H118.482C119.163 11.3988 120.816 10.0664 123.151 10.0664C125.486 10.0664 128.161 11.2507 128.161 16.1854V24.7224H125.583V16.4815C125.583 14.1622 124.756 12.2377 122.324 12.2377C119.892 12.2377 119.309 13.4713 118.871 14.9024C118.774 15.2478 118.676 15.692 118.676 16.1361V24.7718H116.099V14.3102Z" fill="#AFD8C3"/>
<path d="M135.408 6.31595V10.4117H139.104V12.3856H135.408V20.1331C135.408 21.9096 135.894 22.8965 137.353 22.8965C138.812 22.8965 138.521 22.7978 138.861 22.6991L138.958 24.673C138.472 24.8704 137.694 25.0184 136.672 25.0184C135.651 25.0184 134.532 24.6236 133.9 23.9328C133.17 23.1432 132.927 21.9096 132.927 20.1824V12.3856H130.739V10.4117H132.927V6.95746L135.456 6.2666L135.408 6.31595Z" fill="#AFD8C3"/>
<path d="M23.3947 24.1303C22.4706 24.6238 20.5737 25.0679 18.1905 25.0679C12.6458 25.0679 8.46291 21.5149 8.46291 14.9518C8.46291 8.38864 12.6458 4.49023 18.7255 4.49023C24.8052 4.49023 22.7138 5.03305 23.3947 5.37848L22.7624 7.50039C21.7897 7.00693 20.4278 6.6615 18.7741 6.6615C14.1535 6.6615 11.0893 9.67166 11.0893 14.9024C11.0893 20.1332 13.8617 22.946 18.6282 22.946C23.3947 22.946 21.741 22.6005 22.7624 22.1071L23.2974 24.1303H23.3947Z" fill="white"/>
<path d="M39.2991 17.4689C39.2991 22.749 35.6999 25.0683 32.2466 25.0683C28.7934 25.0683 25.486 22.2062 25.486 17.7156C25.486 13.2251 28.5988 10.1162 32.4898 10.1162C36.3809 10.1162 39.2991 13.1264 39.2991 17.4689ZM28.0638 17.6169C28.0638 20.7751 29.8634 23.1438 32.3439 23.1438C34.8244 23.1438 36.624 20.8245 36.624 17.5676C36.624 14.3107 35.4081 12.0407 32.3926 12.0407C29.377 12.0407 28.0638 14.9029 28.0638 17.6169Z" fill="white"/>
<path d="M42.5093 14.9024C42.5093 13.2246 42.5093 11.7442 42.4121 10.4118H44.6494L44.7467 13.2246H44.8439C45.4762 11.3001 47.0326 10.0664 48.735 10.0664C50.4373 10.0664 49.2213 10.0664 49.4645 10.1651V12.6324C49.2213 12.5831 48.9295 12.5338 48.5891 12.5338C46.7895 12.5338 45.4762 13.9155 45.1358 15.8893C45.0871 16.2348 45.0385 16.6789 45.0385 17.123V24.7718H42.5093V14.9024Z" fill="white"/>
<path d="M53.5017 18.0611C53.5503 21.5647 55.7876 23.0451 58.3654 23.0451C60.9432 23.0451 61.3323 22.6997 62.2565 22.3049L62.6942 24.1801C61.7701 24.5748 60.2623 25.0683 57.9763 25.0683C53.6476 25.0683 51.0211 22.1569 51.0211 17.8637C51.0211 13.5705 53.5503 10.1162 57.6359 10.1162C61.7214 10.1162 63.4724 14.212 63.4724 16.8767C63.4724 19.5415 63.4238 17.8143 63.3751 18.1104H53.453L53.5017 18.0611ZM61.0405 16.2352C61.0405 14.5574 60.3596 11.9914 57.49 11.9914C54.6203 11.9914 53.7449 14.4094 53.5503 16.2352H61.0405Z" fill="white"/>
<path d="M146.448 23.2424C146.448 22.1567 147.178 21.3672 148.199 21.3672C149.221 21.3672 149.902 22.1567 149.902 23.2424C149.902 24.328 149.221 25.1176 148.151 25.1176C147.081 25.1176 146.448 24.328 146.448 23.2424Z" fill="#AFD8C3"/>
<path d="M152.723 0H140.271V0.394775H152.723V0Z" fill="#AFD8C3"/>
<path d="M12.6459 33.6055H5.34058e-05V34.0002H12.6459V33.6055Z" fill="#AFD8C3"/>
<path d="M0.389156 23.1934H5.34058e-05V33.8029H0.389156V23.1934Z" fill="#AFD8C3"/>
<path d="M153.112 0H152.723V10.2148H153.112V0Z" fill="#AFD8C3"/>
</svg>
